<svg width="123" height="130" viewBox="0 0 123 130" fill="none" xmlns="http://www.w3.org/2000/svg">
<path d="M62.6242 13.7304L82.9266 25.1528C71.9716 6.54977 62.8245 1.53358 60.2206 0.41545C60.123 0.374418 60.0305 0.333385 59.9484 0.302611C59.8713 0.271837 59.8046 0.246191 59.7429 0.225675C59.7327 0.220546 59.7275 0.215418 59.7172 0.215418C59.6916 0.20516 59.6659 0.20003 59.6402 0.189772C59.6248 0.179514 59.6094 0.174385 59.594 0.174385C59.558 0.164127 59.5169 0.15387 59.4759 0.143612C59.1266 0.0512897 58.762 0 58.3819 0H51.6538C50.7345 0 49.8716 0.435964 49.3272 1.17454L31.562 25.3528L13.6221 1.61564C12.8517 0.600094 11.6499 0 10.371 0H3.42208C0.607577 0 -0.999976 3.21077 0.689752 5.45729L28.6088 42.6223C29.2354 43.4583 30.2266 43.9507 31.2743 43.9507C31.7879 43.9507 32.2861 43.8327 32.733 43.6173C33.1849 43.4019 33.5855 43.0839 33.8988 42.6787L49.3786 22.9473L49.3169 51.9161C48.4592 51.7725 47.581 51.7006 46.6873 51.7006C37.91 51.7006 30.7967 58.8043 30.7967 67.5699C30.7967 70.7858 31.752 73.776 33.4006 76.2738C36.2408 80.5925 41.1302 83.4391 46.6873 83.4391C55.4647 83.4391 62.578 76.3303 62.578 67.5699C62.578 67.0416 62.5523 66.5133 62.5009 65.9953C62.5163 65.9337 62.5215 65.867 62.5215 65.8003V51.4083C62.5215 51.3365 62.5163 51.2595 62.4958 51.1929C62.5163 51.0595 62.5215 50.921 62.5215 50.7825L62.6242 13.7304ZM46.6308 75.4942C42.6608 75.4942 39.4405 72.2783 39.4405 68.3136C39.4405 64.3488 42.6608 61.1329 46.6308 61.1329C50.6009 61.1329 53.8212 64.3488 53.8212 68.3136C53.8212 72.2783 50.6061 75.4942 46.6308 75.4942Z" fill="url(#paint0_linear_320_178)"/>
<path d="M0.00671387 43.9558V62.7794C0.00671387 63.8308 0.859281 64.6822 1.91215 64.6822H10.2375C11.2904 64.6822 12.143 63.8308 12.143 62.7794V43.5865C12.143 42.5351 11.2904 41.6837 10.2375 41.6837H1.91215C0.859281 41.6837 0.00671387 42.5351 0.00671387 43.5865V43.9609V43.9558Z" fill="url(#paint1_linear_320_178)"/>
<path d="M71.8895 2.45166L116.023 28.1327C120.301 30.6254 122.936 35.1954 122.936 40.1449C122.936 45.0944 120.26 49.7413 115.92 52.2135L63.8466 81.9311V68.0315L111.678 39.2319L87.1586 24.5321L71.8843 2.45679L71.8895 2.45166Z" fill="#FFCC00"/>
<path d="M7.68 123V105.72H10.284L16.26 117.96L22.236 105.72H24.84V123H22.14V111.924L16.836 123H15.684L10.392 111.924V123H7.68ZM35.1713 123.36C33.7953 123.36 32.5833 123.08 31.5353 122.52C30.4953 121.96 29.6793 121.172 29.0873 120.156C28.5033 119.14 28.2113 117.948 28.2113 116.58V105.744L31.1393 105.72V116.508C31.1393 117.156 31.2473 117.736 31.4633 118.248C31.6873 118.76 31.9873 119.196 32.3633 119.556C32.7393 119.908 33.1713 120.176 33.6593 120.36C34.1473 120.544 34.6513 120.636 35.1713 120.636C35.7073 120.636 36.2153 120.544 36.6953 120.36C37.1833 120.168 37.6153 119.896 37.9913 119.544C38.3673 119.184 38.6633 118.748 38.8793 118.236C39.0953 117.724 39.2032 117.148 39.2032 116.508V105.72H42.1313V116.58C42.1313 117.948 41.8353 119.14 41.2433 120.156C40.6593 121.172 39.8433 121.96 38.7953 122.52C37.7553 123.08 36.5473 123.36 35.1713 123.36ZM45.0047 123V122.604L53.5247 108.432H45.6047V105.72H58.5287V106.128L50.0567 120.276H58.3247V123H45.0047ZM61.6388 123V105.72H64.5308V123H61.6388ZM81.6493 123.36L76.7173 118.452L78.5293 116.64L83.4373 121.548L81.6493 123.36ZM75.4333 123.36C73.7053 123.36 72.2253 122.984 70.9933 122.232C69.7613 121.472 68.8133 120.416 68.1493 119.064C67.4933 117.712 67.1653 116.144 67.1653 114.36C67.1653 112.576 67.4933 111.008 68.1493 109.656C68.8133 108.304 69.7613 107.252 70.9933 106.5C72.2253 105.74 73.7053 105.36 75.4333 105.36C77.1613 105.36 78.6413 105.74 79.8733 106.5C81.1133 107.252 82.0613 108.304 82.7173 109.656C83.3813 111.008 83.7133 112.576 83.7133 114.36C83.7133 116.144 83.3813 117.712 82.7173 119.064C82.0613 120.416 81.1133 121.472 79.8733 122.232C78.6413 122.984 77.1613 123.36 75.4333 123.36ZM75.4333 120.636C76.5933 120.644 77.5573 120.388 78.3253 119.868C79.1013 119.348 79.6813 118.616 80.0653 117.672C80.4573 116.728 80.6533 115.624 80.6533 114.36C80.6533 113.096 80.4573 112 80.0653 111.072C79.6813 110.136 79.1013 109.408 78.3253 108.888C77.5573 108.368 76.5933 108.1 75.4333 108.084C74.2733 108.076 73.3093 108.332 72.5413 108.852C71.7733 109.372 71.1933 110.104 70.8013 111.048C70.4173 111.992 70.2253 113.096 70.2253 114.36C70.2253 115.624 70.4173 116.724 70.8013 117.66C71.1853 118.588 71.7613 119.312 72.5293 119.832C73.3053 120.352 74.2733 120.62 75.4333 120.636ZM93.0619 123.36C91.6859 123.36 90.4739 123.08 89.4259 122.52C88.3859 121.96 87.5699 121.172 86.9779 120.156C86.3939 119.14 86.1019 117.948 86.1019 116.58V105.744L89.0299 105.72V116.508C89.0299 117.156 89.1379 117.736 89.3539 118.248C89.5779 118.76 89.8779 119.196 90.2539 119.556C90.6299 119.908 91.0619 120.176 91.5499 120.36C92.0379 120.544 92.5419 120.636 93.0619 120.636C93.5979 120.636 94.1059 120.544 94.5859 120.36C95.0739 120.168 95.5059 119.896 95.8819 119.544C96.2579 119.184 96.5539 118.748 96.7699 118.236C96.9859 117.724 97.0939 117.148 97.0939 116.508V105.72H100.022V116.58C100.022 117.948 99.7259 119.14 99.1339 120.156C98.5499 121.172 97.7339 121.96 96.6859 122.52C95.6459 123.08 94.4379 123.36 93.0619 123.36ZM103.375 123V105.72H114.535V108.432H106.267V112.692H113.095V115.404H106.267V120.288H114.535V123H103.375Z" fill="white"/>
<defs>
<linearGradient id="paint0_linear_320_178" x1="84.0462" y1="39.9039" x2="-124.386" y2="46.353" gradientUnits="userSpaceOnUse">
<stop stop-color="#FF0004"/>
<stop offset="1"/>
</linearGradient>
<linearGradient id="paint1_linear_320_178" x1="12.143" y1="53.1317" x2="-7.18875" y2="53.2911" gradientUnits="userSpaceOnUse">
<stop stop-color="#FF0004"/>
<stop offset="1" stop-color="#990003"/>
</linearGradient>
</defs>
</svg>
