<svg width="123" height="84" viewBox="0 0 123 84" fill="none" xmlns="http://www.w3.org/2000/svg">
<path d="M62.6242 13.7304L82.9266 25.1528C71.9716 6.54977 62.8245 1.53358 60.2206 0.41545C60.123 0.374418 60.0305 0.333385 59.9484 0.302611C59.8713 0.271837 59.8046 0.246191 59.7429 0.225675C59.7327 0.220546 59.7275 0.215418 59.7172 0.215418C59.6916 0.20516 59.6659 0.20003 59.6402 0.189772C59.6248 0.179514 59.6094 0.174385 59.594 0.174385C59.558 0.164127 59.5169 0.15387 59.4759 0.143612C59.1266 0.0512897 58.762 0 58.3819 0H51.6538C50.7345 0 49.8716 0.435964 49.3272 1.17454L31.562 25.3528L13.6221 1.61564C12.8517 0.600094 11.6499 0 10.371 0H3.42208C0.607577 0 -0.999976 3.21077 0.689752 5.45729L28.6088 42.6223C29.2354 43.4583 30.2266 43.9507 31.2743 43.9507C31.7879 43.9507 32.2861 43.8327 32.733 43.6173C33.1849 43.4019 33.5855 43.0839 33.8988 42.6787L49.3786 22.9473L49.3169 51.9161C48.4592 51.7724 47.581 51.7006 46.6873 51.7006C37.91 51.7006 30.7967 58.8043 30.7967 67.5699C30.7967 70.7858 31.752 73.776 33.4006 76.2738C36.2408 80.5925 41.1302 83.4391 46.6873 83.4391C55.4647 83.4391 62.578 76.3303 62.578 67.5699C62.578 67.0416 62.5523 66.5133 62.5009 65.9953C62.5163 65.9337 62.5215 65.867 62.5215 65.8003V51.4083C62.5215 51.3365 62.5163 51.2595 62.4958 51.1929C62.5163 51.0595 62.5215 50.921 62.5215 50.7825L62.6242 13.7304ZM46.6308 75.4942C42.6608 75.4942 39.4405 72.2783 39.4405 68.3136C39.4405 64.3488 42.6608 61.1329 46.6308 61.1329C50.6009 61.1329 53.8212 64.3488 53.8212 68.3136C53.8212 72.2783 50.6061 75.4942 46.6308 75.4942Z" fill="url(#paint0_linear_228_102)"/>
<path d="M0.00671387 43.9558V62.7794C0.00671387 63.8308 0.859281 64.6822 1.91215 64.6822H10.2375C11.2904 64.6822 12.143 63.8308 12.143 62.7794V43.5865C12.143 42.5351 11.2904 41.6837 10.2375 41.6837H1.91215C0.859281 41.6837 0.00671387 42.5351 0.00671387 43.5865V43.9609V43.9558Z" fill="url(#paint1_linear_228_102)"/>
<path d="M71.8895 2.45166L116.023 28.1327C120.301 30.6254 122.936 35.1954 122.936 40.1449C122.936 45.0944 120.26 49.7413 115.92 52.2135L63.8466 81.9311V68.0315L111.678 39.2319L87.1586 24.5321L71.8843 2.45679L71.8895 2.45166Z" fill="#FFCC00"/>
<defs>
<linearGradient id="paint0_linear_228_102" x1="84.0462" y1="39.9039" x2="-124.386" y2="46.353" gradientUnits="userSpaceOnUse">
<stop stop-color="#FF0004"/>
<stop offset="1"/>
</linearGradient>
<linearGradient id="paint1_linear_228_102" x1="12.143" y1="53.1317" x2="-7.18875" y2="53.2911" gradientUnits="userSpaceOnUse">
<stop stop-color="#FF0004"/>
<stop offset="1" stop-color="#990003"/>
</linearGradient>
</defs>
</svg>
