<svg width="246" height="84" viewBox="0 0 246 84" fill="none" xmlns="http://www.w3.org/2000/svg">
<rect width="245.936" height="83.4391" fill="white"/>
<path d="M62.6242 13.7304L82.9266 25.1528C71.9716 6.54977 62.8245 1.53358 60.2206 0.41545C60.123 0.374418 60.0305 0.333385 59.9484 0.302611C59.8713 0.271837 59.8046 0.246191 59.7429 0.225675C59.7327 0.220546 59.7275 0.215418 59.7172 0.215418C59.6916 0.20516 59.6659 0.20003 59.6402 0.189772C59.6248 0.179514 59.6094 0.174385 59.594 0.174385C59.558 0.164127 59.5169 0.15387 59.4759 0.143612C59.1266 0.0512897 58.762 0 58.3819 0H51.6538C50.7345 0 49.8716 0.435964 49.3272 1.17454L31.562 25.3528L13.6221 1.61564C12.8517 0.600094 11.6499 0 10.371 0H3.42208C0.607577 0 -0.999976 3.21077 0.689752 5.45729L28.6088 42.6223C29.2354 43.4583 30.2266 43.9507 31.2743 43.9507C31.7879 43.9507 32.2861 43.8327 32.733 43.6173C33.1849 43.4019 33.5855 43.0839 33.8988 42.6787L49.3786 22.9473L49.3169 51.9161C48.4592 51.7724 47.581 51.7006 46.6873 51.7006C37.91 51.7006 30.7967 58.8043 30.7967 67.5699C30.7967 70.7858 31.752 73.776 33.4006 76.2738C36.2408 80.5925 41.1302 83.4391 46.6873 83.4391C55.4647 83.4391 62.578 76.3303 62.578 67.5699C62.578 67.0416 62.5523 66.5133 62.5009 65.9953C62.5163 65.9337 62.5215 65.867 62.5215 65.8003V51.4083C62.5215 51.3365 62.5163 51.2595 62.4958 51.1929C62.5163 51.0595 62.5215 50.921 62.5215 50.7825L62.6242 13.7304ZM46.6308 75.4942C42.6608 75.4942 39.4405 72.2783 39.4405 68.3136C39.4405 64.3488 42.6608 61.1329 46.6308 61.1329C50.6009 61.1329 53.8212 64.3488 53.8212 68.3136C53.8212 72.2783 50.6061 75.4942 46.6308 75.4942Z" fill="url(#paint0_linear_320_178)"/>
<path d="M0.00671387 43.9558V62.7794C0.00671387 63.8308 0.859281 64.6822 1.91215 64.6822H10.2375C11.2904 64.6822 12.143 63.8308 12.143 62.7794V43.5865C12.143 42.5351 11.2904 41.6837 10.2375 41.6837H1.91215C0.859281 41.6837 0.00671387 42.5351 0.00671387 43.5865V43.9609V43.9558Z" fill="url(#paint1_linear_320_178)"/>
<path d="M71.8895 2.45166L116.023 28.1327C120.301 30.6254 122.936 35.1954 122.936 40.1449C122.936 45.0944 120.26 49.7413 115.92 52.2135L63.8466 81.9311V68.0315L111.678 39.2319L87.1586 24.5321L71.8843 2.45679L71.8895 2.45166Z" fill="#FFCC00"/>
<path d="M137.616 51.2195V33.9395H140.22L146.196 46.1795L152.172 33.9395H154.776V51.2195H152.076V40.1435L146.772 51.2195H145.62L140.328 40.1435V51.2195H137.616ZM165.107 51.5795C163.731 51.5795 162.519 51.2995 161.471 50.7395C160.431 50.1795 159.615 49.3915 159.023 48.3755C158.439 47.3595 158.147 46.1675 158.147 44.7995V33.9635L161.075 33.9395V44.7275C161.075 45.3755 161.183 45.9555 161.399 46.4675C161.623 46.9795 161.923 47.4155 162.299 47.7755C162.675 48.1275 163.107 48.3955 163.595 48.5795C164.083 48.7635 164.587 48.8555 165.107 48.8555C165.643 48.8555 166.151 48.7635 166.631 48.5795C167.119 48.3875 167.551 48.1155 167.927 47.7635C168.303 47.4035 168.599 46.9675 168.815 46.4555C169.031 45.9435 169.139 45.3675 169.139 44.7275V33.9395H172.067V44.7995C172.067 46.1675 171.771 47.3595 171.179 48.3755C170.595 49.3915 169.779 50.1795 168.731 50.7395C167.691 51.2995 166.483 51.5795 165.107 51.5795ZM174.94 51.2195V50.8235L183.46 36.6515H175.54V33.9395H188.464V34.3475L179.992 48.4955H188.26V51.2195H174.94ZM191.574 51.2195V33.9395H194.466V51.2195H191.574ZM211.585 51.5795L206.653 46.6715L208.465 44.8595L213.373 49.7675L211.585 51.5795ZM205.369 51.5795C203.641 51.5795 202.161 51.2035 200.929 50.4515C199.697 49.6915 198.749 48.6355 198.085 47.2835C197.429 45.9315 197.101 44.3635 197.101 42.5795C197.101 40.7955 197.429 39.2275 198.085 37.8755C198.749 36.5235 199.697 35.4715 200.929 34.7195C202.161 33.9595 203.641 33.5795 205.369 33.5795C207.097 33.5795 208.577 33.9595 209.809 34.7195C211.049 35.4715 211.997 36.5235 212.653 37.8755C213.317 39.2275 213.649 40.7955 213.649 42.5795C213.649 44.3635 213.317 45.9315 212.653 47.2835C211.997 48.6355 211.049 49.6915 209.809 50.4515C208.577 51.2035 207.097 51.5795 205.369 51.5795ZM205.369 48.8555C206.529 48.8635 207.493 48.6075 208.261 48.0875C209.037 47.5675 209.617 46.8355 210.001 45.8915C210.393 44.9475 210.589 43.8435 210.589 42.5795C210.589 41.3155 210.393 40.2195 210.001 39.2915C209.617 38.3555 209.037 37.6275 208.261 37.1075C207.493 36.5875 206.529 36.3195 205.369 36.3035C204.209 36.2955 203.245 36.5515 202.477 37.0715C201.709 37.5915 201.129 38.3235 200.737 39.2675C200.353 40.2115 200.161 41.3155 200.161 42.5795C200.161 43.8435 200.353 44.9435 200.737 45.8795C201.121 46.8075 201.697 47.5315 202.465 48.0515C203.241 48.5715 204.209 48.8395 205.369 48.8555ZM222.998 51.5795C221.622 51.5795 220.41 51.2995 219.362 50.7395C218.322 50.1795 217.506 49.3915 216.914 48.3755C216.33 47.3595 216.038 46.1675 216.038 44.7995V33.9635L218.966 33.9395V44.7275C218.966 45.3755 219.074 45.9555 219.29 46.4675C219.514 46.9795 219.814 47.4155 220.19 47.7755C220.566 48.1275 220.998 48.3955 221.486 48.5795C221.974 48.7635 222.478 48.8555 222.998 48.8555C223.534 48.8555 224.042 48.7635 224.522 48.5795C225.01 48.3875 225.442 48.1155 225.818 47.7635C226.194 47.4035 226.49 46.9675 226.706 46.4555C226.922 45.9435 227.03 45.3675 227.03 44.7275V33.9395H229.958V44.7995C229.958 46.1675 229.662 47.3595 229.07 48.3755C228.486 49.3915 227.67 50.1795 226.622 50.7395C225.582 51.2995 224.374 51.5795 222.998 51.5795ZM233.311 51.2195V33.9395H244.471V36.6515H236.203V40.9115H243.031V43.6235H236.203V48.5075H244.471V51.2195H233.311Z" fill="#343434"/>
<defs>
<linearGradient id="paint0_linear_320_178" x1="84.0462" y1="39.9039" x2="-124.386" y2="46.353" gradientUnits="userSpaceOnUse">
<stop stop-color="#FF0004"/>
<stop offset="1"/>
</linearGradient>
<linearGradient id="paint1_linear_320_178" x1="12.143" y1="53.1317" x2="-7.18875" y2="53.2911" gradientUnits="userSpaceOnUse">
<stop stop-color="#FF0004"/>
<stop offset="1" stop-color="#990003"/>
</linearGradient>
</defs>
</svg>
